# xmcd
# Copyright (C) 1995-1998 Ti Kan
#
# Track frame offsets:
#       150
#       11424
#       23005
#       32248
#       47269
#       58966
#       72911
#       82237
#       97059
#       109773
#       120392
#       130200
#
# Disc length: 1952 seconds
#
# Revision: 0
# Processed by: cddbd v1.5.2PL0 Copyright (c) Steve Scherf et al.
# Submitted via: CD-Transfer v1.0
#
DISCID=9d079e0c
DTITLE=Zillertaler Gipfelwind - 
DYEAR=08
DGENRE=
TTITLE0=Heit Spieln Mir A Volksmusik Auf (8)
TTITLE1=A Guata Freund (8)
TTITLE2=Der Heunige (8)
TTITLE3=Meine Bergwelt (8)
TTITLE4=Wenn Der Gipfelwind Über Die Almen Waht (8)
TTITLE5=Musikalische Weltreise (8)
TTITLE6=Boarisch Tanzen (8)
TTITLE7=I Geh Gern Zum Fensterln (8)
TTITLE8=Spielhahn Ländler (8)
TTITLE9=Is Leben Isch Wunderschian (8)
TTITLE10=Der Jager Vom Karwendel (8)
TTITLE11=Schmissig Durchs Zillertal (8)
EXTD=
EXTT0=
EXTT1=
EXTT2=
EXTT3=
EXTT4=
EXTT5=
EXTT6=
EXTT7=
EXTT8=
EXTT9=
EXTT10=
EXTT11=
PLAYORDER=
